<?xml version="1.0" standalone="no"?><!DOCTYPE svg PUBLIC "-//W3C//DTD SVG 1.1//EN" "http://www.w3.org/Graphics/SVG/1.1/DTD/svg11.dtd"><svg t="1604303961578" class="icon" viewBox="0 0 1024 1024" version="1.1" xmlns="http://www.w3.org/2000/svg" p-id="2723" xmlns:xlink="http://www.w3.org/1999/xlink" width="200" height="200"><defs><style type="text/css"></style></defs><path d="M512 51.2C258.048 51.2 51.2 258.048 51.2 512s206.848 460.8 460.8 460.8 460.8-206.848 460.8-460.8S765.952 51.2 512 51.2z m235.52 481.28H532.48v215.04c0 11.264-9.216 20.48-20.48 20.48s-20.48-9.216-20.48-20.48V532.48H276.48c-11.264 0-20.48-9.216-20.48-20.48s9.216-20.48 20.48-20.48h215.04V276.48c0-11.264 9.216-20.48 20.48-20.48s20.48 9.216 20.48 20.48v215.04h215.04c11.264 0 20.48 9.216 20.48 20.48s-9.216 20.48-20.48 20.48z" p-id="2724"></path></svg>