<?xml version="1.0" standalone="no"?><!DOCTYPE svg PUBLIC "-//W3C//DTD SVG 1.1//EN" "http://www.w3.org/Graphics/SVG/1.1/DTD/svg11.dtd"><svg t="1604304029575" class="icon" viewBox="0 0 1024 1024" version="1.1" xmlns="http://www.w3.org/2000/svg" p-id="4492" xmlns:xlink="http://www.w3.org/1999/xlink" width="200" height="200"><defs><style type="text/css"></style></defs><path d="M512 128c211.74 0 384 172.26 384 384S723.74 896 512 896 128 723.74 128 512s172.26-384 384-384m0-64C264.58 64 64 264.58 64 512s200.58 448 448 448 448-200.58 448-448S759.42 64 512 64z" p-id="4493"></path><path d="M640 544a32 32 0 0 0 0-64h-78.86l109.25-109.26a32 32 0 0 0-45.25-45.25L512 438.63 398.86 325.49a32 32 0 0 0-45.25 45.25L462.86 480H384a32 32 0 0 0 0 64h96v64h-96a32 32 0 0 0 0 64h96v64a32 32 0 0 0 64 0v-64h96a32 32 0 0 0 0-64h-96v-64z" p-id="4494"></path></svg>